<?xml version="1.0" encoding="UTF-8"?>
<svg xmlns="http://www.w3.org/2000/svg" version="1.1" viewBox="0 0 732 727">
  <defs>
    <style>
      .cls-1 {
        fill: #5b4c9b;
      }

      .cls-2 {
        fill: #6650a4;
      }

      .cls-3 {
        fill: #564a97;
      }

      .cls-4 {
        fill: #404185;
      }

      .cls-5 {
        fill: #6e97b3;
      }

      .cls-6 {
        fill: #648577;
      }

      .cls-7 {
        fill: #614ea0;
      }

      .cls-8 {
        fill: #7155ad;
      }

      .cls-9 {
        fill: #504892;
      }

      .cls-10 {
        fill: #4b468e;
      }

      .cls-11 {
        fill: #6c53a8;
      }

      .cls-12 {
        fill: #7757b1;
      }

      .cls-13 {
        fill: #3a3f81;
      }

      .cls-14 {
        fill: #45438a;
      }
    </style>
  </defs>
  <!-- Generator: Adobe Illustrator 28.6.0, SVG Export Plug-In . SVG Version: 1.2.0 Build 709)  -->
  <g>
    <g id="Layer_1">
      <g id="Faded_back">
        <ellipse class="cls-13" cx="366" cy="363.5" rx="366" ry="363.5"/>
        <ellipse class="cls-4" cx="366" cy="363.5" rx="351.7" ry="349"/>
        <ellipse class="cls-14" cx="365.9" cy="363.6" rx="337.3" ry="334.6"/>
        <ellipse class="cls-10" cx="365.9" cy="363.6" rx="323" ry="320.2"/>
        <ellipse class="cls-9" cx="365.8" cy="363.7" rx="308.6" ry="305.7"/>
        <ellipse class="cls-3" cx="365.8" cy="363.7" rx="294.3" ry="291.3"/>
        <ellipse class="cls-1" cx="365.7" cy="363.8" rx="280" ry="276.8"/>
        <ellipse class="cls-7" cx="365.7" cy="363.8" rx="265.6" ry="262.4"/>
        <ellipse class="cls-2" cx="365.7" cy="363.9" rx="251.3" ry="247.9"/>
        <ellipse class="cls-11" cx="365.6" cy="363.9" rx="237" ry="233.5"/>
        <ellipse class="cls-8" cx="365.6" cy="363.9" rx="222.6" ry="219"/>
        <ellipse class="cls-12" cx="365.5" cy="364" rx="208.3" ry="204.6"/>
      </g>
      <g id="Earth">
        <ellipse class="cls-5" cx="366.5" cy="364.2" rx="239.5" ry="239.1"/>
      </g>
      <g id="earth_patches">
        <path class="cls-6" d="M240.4,160.9c21.2,1.1,45,19.6,48.3,41.4,4.6,29.7-31.6,47.2-25.2,80.4,3.4,17.9,15.4,20.7,13.7,33.7-3.3,24.8-50.9,45.6-66.2,32.6-11.9-10.2,4.9-33.5-10.5-64.1-8.7-17.4-17.4-16.2-22.1-29.3-11.7-32.5,20.7-96.7,61.9-94.6h0Z"/>
        <path class="cls-6" d="M180.6,515.2c-6.7-47.1,42.7-102.8,86.1-105.4,23.6-1.4,25.4,14,94.5,39.1,28.3,10.3,38.7,11.6,52.5,23.9,22.7,20.3,39.2,56.6,28.4,71.7-15,21-75-9.1-87.2,12-7.2,12.5,9.4,31,1,41.3-7.7,9.5-29.3,3-38.9,0-85.4-27.2-130.8-41.7-136.6-82.6h0Z"/>
        <path class="cls-6" d="M387.5,222.9c2.1,32.7-36.9,43.4-46.2,81.5-8.7,35.5,12.6,77.6,28.4,78.2,20,.9,29.6-64.9,52.5-64.1,16.2.5,17.1,33.4,49.4,53.2,15.1,9.3,41.9,18.8,55.7,7.6,19.6-16,6.7-69.5-2.1-94.6-11.5-32.6-29.5-54.9-20-77.2,3.5-8.2,8.3-10.7,8.4-18.5.2-16.7-21.3-32-37.8-38-40.3-14.7-94.5,10.1-98.7,38-2,13.6,9.4,16.2,10.5,33.7h0Z"/>
        <path class="cls-6" d="M508.3,545.7c-26.2-9.7-36.2-86.1-6.3-113,6.9-6.2,29.8-9.2,75.6-15.2,14.3-1.9,18.7-2.1,22.1,1.1,13,12.5-6.5,61.3-35.7,93.5-11.7,12.8-36.9,40.7-55.7,33.7h0Z"/>
      </g>
    </g>
  </g>
</svg>